<?xml version="1.0" encoding="UTF-8"?>
<!DOCTYPE svg PUBLIC "-//W3C//DTD SVG 1.1//EN" "http://www.w3.org/Graphics/SVG/1.1/DTD/svg11.dtd">
<svg xmlns="http://www.w3.org/2000/svg" version="1.1" width="140px" height="43px" style="shape-rendering:geometricPrecision; text-rendering:geometricPrecision; image-rendering:optimizeQuality; fill-rule:evenodd; clip-rule:evenodd" xmlns:xlink="http://www.w3.org/1999/xlink">
<g><path style="opacity:1" fill="#fdfdff" d="M -0.5,-0.5 C 46.1667,-0.5 92.8333,-0.5 139.5,-0.5C 139.5,13.8333 139.5,28.1667 139.5,42.5C 92.8333,42.5 46.1667,42.5 -0.5,42.5C -0.5,28.1667 -0.5,13.8333 -0.5,-0.5 Z"/></g>
<g><path style="opacity:1" fill="#7650fe" d="M 8.5,4.5 C 24.1702,4.33341 39.8369,4.50008 55.5,5C 56.652,15.0895 56.8186,25.2562 56,35.5C 55.5,36 55,36.5 54.5,37C 39.5,37.6667 24.5,37.6667 9.5,37C 9,36.5 8.5,36 8,35.5C 7.19249,25.0899 7.35915,14.7565 8.5,4.5 Z"/></g>
<g><path style="opacity:1" fill="#805afe" d="M 105.5,26.5 C 105.5,27.5 105.5,28.5 105.5,29.5C 103.167,29.5 100.833,29.5 98.5,29.5C 101.167,23.5 101.167,17.5 98.5,11.5C 100.167,11.5 101.833,11.5 103.5,11.5C 102.892,16.9443 103.558,21.9443 105.5,26.5 Z"/></g>
<g><path style="opacity:1" fill="#efe9ff" d="M 22.5,12.5 C 23.8221,12.33 24.9887,12.6634 26,13.5C 27.5983,17.4612 29.0983,21.4612 30.5,25.5C 31.325,26.3857 32.325,26.719 33.5,26.5C 33.6469,21.7858 33.3136,17.1191 32.5,12.5C 35.5184,12.3354 38.5184,12.502 41.5,13C 44.2028,14.8201 45.0361,17.3201 44,20.5C 42.2111,22.229 40.0444,22.8957 37.5,22.5C 37.8844,24.9294 38.551,27.2627 39.5,29.5C 34.8333,29.5 30.1667,29.5 25.5,29.5C 25.4208,28.0695 25.7542,26.7362 26.5,25.5C 24.8333,24.1667 23.1667,24.1667 21.5,25.5C 22.2458,26.7362 22.5792,28.0695 22.5,29.5C 20.1667,29.5 17.8333,29.5 15.5,29.5C 18.0156,23.9646 20.3489,18.298 22.5,12.5 Z"/></g>
<g><path style="opacity:1" fill="#ede6ff" d="M 45.5,12.5 C 47.5273,12.3379 49.5273,12.5045 51.5,13C 51.9574,13.414 52.2907,13.914 52.5,14.5C 51.3203,16.4542 50.6537,18.6209 50.5,21C 50.8825,23.9514 51.5492,26.7847 52.5,29.5C 50.1667,29.5 47.8333,29.5 45.5,29.5C 46.8333,23.8333 46.8333,18.1667 45.5,12.5 Z"/></g>
<g><path style="opacity:1" fill="#825dfe" d="M 66.5,28.5 C 63.6122,29.0102 61.2789,28.3435 59.5,26.5C 60.6778,21.9787 60.6778,17.3121 59.5,12.5C 70.5523,10.7119 74.719,15.0453 72,25.5C 70.7365,27.607 68.9032,28.607 66.5,28.5 Z"/></g>
<g><path style="opacity:1" fill="#f6f4ff" d="M 63.5,15.5 C 67.5803,15.0807 69.5803,16.914 69.5,21C 69.5803,25.086 67.5803,26.9193 63.5,26.5C 63.5,22.8333 63.5,19.1667 63.5,15.5 Z"/></g>
<g><path style="opacity:1" fill="#6a41fe" d="M 37.5,15.5 C 40.9563,16.5362 41.2896,18.2029 38.5,20.5C 37.5481,18.9547 37.2148,17.288 37.5,15.5 Z"/></g>
<g><path style="opacity:1" fill="#8663fe" d="M 85.5,17.5 C 96.5764,14.4145 100.076,18.0811 96,28.5C 94.1746,29.1029 92.3413,29.7696 90.5,30.5C 91.8532,31.5237 92.5198,32.857 92.5,34.5C 90.1667,34.5 87.8333,34.5 85.5,34.5C 86.78,28.8198 86.78,23.1531 85.5,17.5 Z"/></g>
<g><path style="opacity:1" fill="#825dfe" d="M 117.5,17.5 C 119.144,17.2865 120.644,17.6198 122,18.5C 122.667,20.5 123.333,22.5 124,24.5C 125.217,22.4798 125.383,20.4798 124.5,18.5C 126.167,17.1667 127.833,17.1667 129.5,18.5C 127.244,23.4246 125.078,28.4246 123,33.5C 121.301,34.4061 119.467,34.7394 117.5,34.5C 117.5,33.5 117.5,32.5 117.5,31.5C 118.833,31.5 120.167,31.5 121.5,31.5C 121.57,26.383 120.237,21.7163 117.5,17.5 Z"/></g>
<g><path style="opacity:1" fill="#7047fe" d="M 23.5,18.5 C 24.7759,19.3864 24.7759,20.3864 23.5,21.5C 22.4376,20.5754 22.4376,19.5754 23.5,18.5 Z"/></g>
<g><path style="opacity:1" fill="#f9f8ff" d="M 91.5,19.5 C 92.4959,19.4142 93.3292,19.7476 94,20.5C 94.4955,22.4727 94.6621,24.4727 94.5,26.5C 93.1667,26.5 91.8333,26.5 90.5,26.5C 90.298,24.0504 90.6314,21.717 91.5,19.5 Z"/></g>
<g><path style="opacity:1" fill="#845ffe" d="M 78.5,16.5 C 83.3713,16.8824 85.3713,19.549 84.5,24.5C 75.4398,24.4653 75.4398,25.4653 84.5,27.5C 81.1265,30.3044 77.9598,29.9711 75,26.5C 73.7563,22.191 74.9229,18.8577 78.5,16.5 Z"/></g>
<g><path style="opacity:1" fill="#f1eeff" d="M 78.5,19.5 C 79.675,19.281 80.675,19.6143 81.5,20.5C 80.277,21.6139 78.9437,21.7805 77.5,21C 78.056,20.6174 78.3893,20.1174 78.5,19.5 Z"/></g>
<g><path style="opacity:1" fill="#815cfe" d="M 105.5,26.5 C 105.061,17.9775 108.561,15.6442 116,19.5C 116.949,29.0823 113.449,31.4156 105.5,26.5 Z"/></g>
<g><path style="opacity:1" fill="#f9f7ff" d="M 109.5,19.5 C 113.473,20.0755 114.473,22.2421 112.5,26C 111.552,26.4828 110.552,26.6495 109.5,26.5C 109.5,24.1667 109.5,21.8333 109.5,19.5 Z"/></g>
<g><path style="opacity:1" fill="#af96fe" d="M 59.5,26.5 C 61.2789,28.3435 63.6122,29.0102 66.5,28.5C 64.0521,29.4731 61.3854,29.8064 58.5,29.5C 58.2627,28.209 58.596,27.209 59.5,26.5 Z"/></g>
</svg>
